<svg width="66" height="10" viewBox="0 0 66 10" xmlns="http://www.w3.org/2000/svg">
<mask id="zr3bdffeda" style="mask-type:alpha" maskUnits="userSpaceOnUse" x="0" y="0" width="66" height="10">
<path fill-rule="evenodd" clip-rule="evenodd" d="M0 0h66v10H0V0z" fill="#fff"></path>
</mask>
<g mask="url(#zr3bdffeda)">
<path fill-rule="evenodd" clip-rule="evenodd" d="M56.547 5.224a.174.174 0 0 0-.033-.136c.653.027 1.307.05 1.96.075l-1.927.061M3.317 8.761c-.29.029-.58.047-.87.06.557-.064 1.115-.12 1.662-.182 2.528-.287 5.017-.843 7.54-1.148l1.26-.15c2.628-.117 5.25-.313 7.883-.362l-.07.006c-1.343.116-2.69.327-4.023.559-4.462.37-8.922.775-13.382 1.217m10.87-1.921-.884.045.522-.098c.12.02.242.037.363.053m-1.506-.99.797-.177c.94.349 1.924.269 2.914.172-.861.188-1.727.35-2.593.508-.21-.058-1.039-.29-1.118-.503m-7.04.805c.852-.139 1.713-.218 2.57-.367a72.631 72.631 0 0 0 1.956-.377l-.077.017c-1.362.29-2.957.71-4.45.727m5.266-2.492a.608.608 0 0 1 .026-.005.98.98 0 0 0 .268.174c-1.148.178-2.298.349-3.448.519 1.047-.253 2.1-.478 3.154-.688M44.649 2.91l-1.617-.088c3.247-.243 6.494-.461 9.745-.61-2.71.233-5.42.464-8.128.698m10.66.908c-4.493.077-8.988.14-13.479.324-1.14.046-2.28.102-3.42.16-1.384.008-2.768.023-4.151.045l.285-.03c3.447-.377 6.9-.701 10.355-1.003 3.47.186 6.94.37 10.41.504m-13.016.87c3.605 0 7.206.123 10.806.265-.938.064-1.881.173-2.822.3-6.252-.091-12.552.49-18.762.942l-.268.018-.076.003c-3.728.162-7.458.295-11.19.314l-.17.002c2.51-.286 5.021-.56 7.534-.817 4.472-.457 8.951-.796 13.435-1.025l1.513-.002m-25.53 4.52c.015-.003.03-.004.046-.006.706-.013 1.413-.027 2.12-.046a.185.185 0 0 0 .004.157c-1.641.082-3.283.13-4.937.146.926-.175 2.088-.16 2.767-.251M32.509 7.79c-1.245.109-2.492.215-3.738.318.876-.075 1.752-.156 2.625-.249 4.08-.431 8.16-.871 12.238-1.31l2.053-.218c.567-.025 1.133-.05 1.7-.068-1.184.1-2.364.199-3.526.337-3.779.447-7.562.857-11.352 1.19M18.361 5.834c.227-.059.454-.12.68-.18l.628-.038c3.05.296 6.21-.116 9.249-.33l.318-.021c-4.018.385-8.031.823-12.042 1.286-.63 0-1.262-.006-1.892-.034-.011 0-.022-.002-.032-.003 1.034-.2 2.066-.416 3.091-.68m-3.39-.49a155.88 155.88 0 0 0 2.846-.275c.28.035.56.069.839.1a.331.331 0 0 0 .359-.23c.52-.057 1.041-.112 1.562-.17-.519.145-1.038.287-1.559.423-1.375.102-3.102.465-4.505.253.153-.034.305-.069.458-.101m6.487-1.842c-.523.125-1.088.185-1.571.279l-1.924.084c-.734.032-1.467.1-2.2.154 1.888-.33 3.784-.612 5.695-.517M53.486.882c.19-.026.235-.173.185-.294 2.016-.077 4.032-.134 6.045-.16-2.346.383-4.8.456-7.19.585l.96-.13m-39.469 2.99c-.242.042-.485.08-.727.12-.287-.039-.609-.093-.8-.166.328-.08.653-.171.97-.284 1.164.11 2.536-.076 3.72-.203-1.054.156-2.107.351-3.163.534m33.114-2.698.526-.012c-3.922.475-7.85.89-11.78 1.295-.071-.004-.142-.008-.213-.01-1.447-.065-2.89-.108-4.334-.137 5.26-.424 10.529-.841 15.8-1.136m-24.564 1.97a14.63 14.63 0 0 0-1.094-.09c2.051-.133 4.101-.287 6.15-.449 1.813.015 3.625.07 5.437.14l-.512.052-4.835.495c-1.107.087-2.213.17-3.32.247-.653.046-1.306.083-1.959.118.068-.033.138-.064.201-.102.186-.112.18-.382-.068-.411m3.605 1.501c-.773.051-1.546.103-2.32.145-.616.034-1.257.044-1.9.071.607-.148 1.215-.227 1.797-.44.504-.054 1.009-.11 1.513-.16 3.902-.381 7.811-.68 11.72-.978l2.96-.228 1.884.095c-1.66.143-3.32.287-4.981.428-3.56.304-7.112.746-10.673 1.067m3.37.213c-1.81.15-3.657.35-5.497.44 1.547-.128 3.093-.26 4.64-.4.285-.016.572-.027.858-.04M12.569 8.754c.084-.029.17-.052.255-.077.076-.012.151-.026.228-.037 2.423-.366 4.888-.515 7.326-.76 2.273-.228 4.558-.311 6.832-.54 1.92-.192 3.863-.06 5.732-.608a.27.27 0 0 0 .159-.11c.73-.044 1.462-.085 2.194-.127.982-.029 1.965-.057 2.947-.081-.485.046-.971.088-1.456.14-1.939.207-3.874.451-5.807.711a365.15 365.15 0 0 1-8.851.896c-.832.06-1.663.123-2.494.188-1.676.132-3.362.326-5.05.516-.686.032-1.376.032-2.015-.111m-.818.209c.165.064.333.112.501.154-.917.093-1.834.173-2.75.234.715-.164 1.43-.324 2.151-.465a.208.208 0 0 0 .098.077m53.8-3.984c-5.648-.077-11.288-.39-16.934-.565a236.69 236.69 0 0 1 9.341-.004c1.649.033 3.297.092 4.944.162.13.006.128-.157 0-.163a237.176 237.176 0 0 0-6.809-.214c2.638-.046 5.276-.097 7.913-.183.313-.01.315-.395 0-.395-5.439-.01-10.87-.257-16.3-.544 4.256-.358 8.514-.693 12.767-1.056.363-.03.378-.467 0-.467-5.726 0-11.443.328-17.154.754 2.272-.255 4.543-.515 6.819-.721 3.839-.349 7.983-.198 11.73-1.18.283-.075.205-.403-.07-.403-7.232.001-14.497.515-21.73.755-7.257.241-14.512.583-21.774.591-.337 0-.337.424 0 .424 2.994 0 5.987-.001 8.98-.025-2.26.165-4.52.34-6.78.52-1.559.026-3.115.1-4.668.278-.69.08-1.427.149-2.151.278-.374.03-.749.06-1.123.092-.17.014-.269.123-.268.232-.542.038-1.022.176-1.488.504a.22.22 0 0 0-.064.08l-.466.09c-2.08.42-4.162.923-6.181 1.584-.358.116-.172.482.151.432 2.86-.447 5.723-.87 8.582-1.315.628.035 1.257.09 1.886.159l-.241.044c-1.735.322-3.485.526-5.219.884-1.71.352-3.484.427-5.16.922-.251.074-.28.376 0 .436 1.394.3 2.986-.032 4.37-.258 1.059-.173 2.111-.39 3.162-.62.008.076.06.144.134.17.313.116.63.213.948.296-.737.134-1.474.273-2.208.432-.273.06-.234.352-.023.419-.828.12-1.655.247-2.482.385-2.607.436-5.25.615-7.851 1.067-.22.038-.146.299.052.299 2.3.001 4.52-.237 6.798-.538 2.283-.302 4.594-.458 6.896-.628-.39.067-.777.15-1.16.258-1.948.283-3.838.816-5.762 1.222-.31.065-.215.433.073.428 1.862-.027 3.727-.193 5.59-.393-.012.008-.027.015-.04.024-.208.146.017.365.192.365 5.562 0 11.078-.464 16.595-1.047 3.067-.234 6.132-.51 9.185-.813a183.22 183.22 0 0 0 6.076-.721 413.46 413.46 0 0 0 3.646-.327c3.305-.315 6.672-.697 9.99-.697.348 0 .345-.425 0-.437a181.69 181.69 0 0 0-3.358-.075c.25-.047.497-.103.739-.168a882.35 882.35 0 0 1 9.906-.253c.298-.005.299-.371 0-.376" fill="#fff"></path>
</g>
</svg>