<?xml version="1.0" encoding="UTF-8" standalone="no"?>
<!DOCTYPE svg PUBLIC "-//W3C//DTD SVG 1.1//EN" "http://www.w3.org/Graphics/SVG/1.1/DTD/svg11.dtd">
<svg xmlns="http://www.w3.org/2000/svg" version="1.1" viewBox="0.00 0.00 120.00 120.00">
<g stroke-width="2.00" fill="none" stroke-linecap="butt">
<path stroke="#808080" vector-effect="non-scaling-stroke" d="
  M 76.70 58.39
  Q 83.13 56.53 88.07 52.54
  C 103.78 39.85 94.54 21.48 77.83 16.70
  Q 73.88 15.58 65.40 15.54
  Q 43.61 15.46 21.80 15.50
  Q 21.25 15.50 21.25 16.05
  L 21.25 18.25
  Q 21.25 18.75 21.75 18.75
  L 33.75 18.75
  Q 34.25 18.75 34.25 19.25
  L 34.25 102.50
  Q 34.25 103.00 33.75 103.00
  L 21.88 103.00
  Q 21.25 103.00 21.25 103.63
  L 21.25 105.30
  Q 21.25 105.99 21.94 105.99
  Q 44.20 106.03 66.46 105.98
  Q 73.92 105.96 77.82 104.97
  C 106.75 97.68 106.86 65.16 76.71 58.86
  Q 75.77 58.66 76.70 58.39"
/>
<path stroke="#808080" vector-effect="non-scaling-stroke" d="
  M 50.65 19.12
  L 50.85 56.08
  A 0.28 0.28 0.0 0 0 51.13 56.36
  L 65.41 56.28
  A 13.01 12.64 89.7 0 0 77.98 43.21
  L 77.92 31.71
  A 13.01 12.64 89.7 0 0 65.21 18.77
  L 50.93 18.84
  A 0.28 0.28 0.0 0 0 50.65 19.12"
/>
<path stroke="#808080" vector-effect="non-scaling-stroke" d="
  M 80.05 87.57
  C 81.85 62.50 74.28 59.47 51.17 60.59
  Q 50.75 60.61 50.75 61.03
  L 50.75 102.25
  Q 50.75 102.77 51.26 102.82
  C 63.73 103.98 78.87 104.17 80.05 87.57"
/>
</g>
<path fill="#000000" d="
  M 0.00 0.00
  L 120.00 0.00
  L 120.00 120.00
  L 0.00 120.00
  L 0.00 0.00
  Z
  M 76.70 58.39
  Q 83.13 56.53 88.07 52.54
  C 103.78 39.85 94.54 21.48 77.83 16.70
  Q 73.88 15.58 65.40 15.54
  Q 43.61 15.46 21.80 15.50
  Q 21.25 15.50 21.25 16.05
  L 21.25 18.25
  Q 21.25 18.75 21.75 18.75
  L 33.75 18.75
  Q 34.25 18.75 34.25 19.25
  L 34.25 102.50
  Q 34.25 103.00 33.75 103.00
  L 21.88 103.00
  Q 21.25 103.00 21.25 103.63
  L 21.25 105.30
  Q 21.25 105.99 21.94 105.99
  Q 44.20 106.03 66.46 105.98
  Q 73.92 105.96 77.82 104.97
  C 106.75 97.68 106.86 65.16 76.71 58.86
  Q 75.77 58.66 76.70 58.39
  Z"
/>
<path fill="#ffffff" d="
  M 76.71 58.86
  C 106.86 65.16 106.75 97.68 77.82 104.97
  Q 73.92 105.96 66.46 105.98
  Q 44.20 106.03 21.94 105.99
  Q 21.25 105.99 21.25 105.30
  L 21.25 103.63
  Q 21.25 103.00 21.88 103.00
  L 33.75 103.00
  Q 34.25 103.00 34.25 102.50
  L 34.25 19.25
  Q 34.25 18.75 33.75 18.75
  L 21.75 18.75
  Q 21.25 18.75 21.25 18.25
  L 21.25 16.05
  Q 21.25 15.50 21.80 15.50
  Q 43.61 15.46 65.40 15.54
  Q 73.88 15.58 77.83 16.70
  C 94.54 21.48 103.78 39.85 88.07 52.54
  Q 83.13 56.53 76.70 58.39
  Q 75.77 58.66 76.71 58.86
  Z
  M 50.65 19.12
  L 50.85 56.08
  A 0.28 0.28 0.0 0 0 51.13 56.36
  L 65.41 56.28
  A 13.01 12.64 89.7 0 0 77.98 43.21
  L 77.92 31.71
  A 13.01 12.64 89.7 0 0 65.21 18.77
  L 50.93 18.84
  A 0.28 0.28 0.0 0 0 50.65 19.12
  Z
  M 80.05 87.57
  C 81.85 62.50 74.28 59.47 51.17 60.59
  Q 50.75 60.61 50.75 61.03
  L 50.75 102.25
  Q 50.75 102.77 51.26 102.82
  C 63.73 103.98 78.87 104.17 80.05 87.57
  Z"
/>
<g>
<path fill="#000000" d="
  M 50.65 19.12
  A 0.28 0.28 0.0 0 1 50.93 18.84
  L 65.21 18.77
  A 13.01 12.64 89.7 0 1 77.92 31.71
  L 77.98 43.21
  A 13.01 12.64 89.7 0 1 65.41 56.28
  L 51.13 56.36
  A 0.28 0.28 0.0 0 1 50.85 56.08
  L 50.65 19.12
  Z"
/>
<path fill="#000000" d="
  M 51.17 60.59
  C 74.28 59.47 81.85 62.50 80.05 87.57
  C 78.87 104.17 63.73 103.98 51.26 102.82
  Q 50.75 102.77 50.75 102.25
  L 50.75 61.03
  Q 50.75 60.61 51.17 60.59
  Z"
/>
</g>
</svg>
