<?xml version="1.0" standalone="no"?>
<!DOCTYPE svg PUBLIC "-//W3C//DTD SVG 20010904//EN"
 "http://www.w3.org/TR/2001/REC-SVG-20010904/DTD/svg10.dtd">
<svg version="1.0" xmlns="http://www.w3.org/2000/svg"
 width="700.000000pt" height="700.000000pt" viewBox="0 0 700.000000 700.000000"
 preserveAspectRatio="xMidYMid meet">
<metadata>
Created by potrace 1.14, written by Peter Selinger 2001-2017
</metadata>
<g transform="translate(0.000000,700.000000) scale(0.100000,-0.100000)"
fill="#000000" stroke="none">
<path d="M0 3500 l0 -3500 3500 0 3500 0 0 3500 0 3500 -3500 0 -3500 0 0
-3500z m4220 2581 c244 -27 394 -66 570 -148 477 -222 792 -633 817 -1064 17
-311 -106 -593 -369 -845 -52 -49 -137 -119 -189 -157 -116 -83 -350 -202
-484 -246 -55 -18 -104 -36 -109 -39 -5 -3 49 -20 120 -38 235 -59 443 -149
629 -272 122 -81 311 -265 382 -372 141 -211 213 -438 213 -669 0 -618 -479
-1145 -1221 -1345 -201 -54 -256 -58 -944 -66 -753 -10 -1858 -10 -2170 -1
l-220 6 0 80 0 80 364 3 c249 1 369 6 378 13 11 10 13 425 13 2439 0 1336 -3
2435 -6 2444 -5 14 -47 16 -364 16 -197 0 -365 3 -374 6 -13 5 -16 23 -16 94
0 61 4 90 13 94 25 11 2859 -1 2967 -13z"/>
<path d="M3371 5900 l-414 -5 2 -930 c0 -511 4 -1004 8 -1094 l6 -164 471 8
c412 6 480 10 546 26 235 59 428 238 513 475 44 123 49 197 45 635 -4 376 -6
410 -27 484 -89 329 -354 551 -676 567 -33 2 -246 1 -474 -2z"/>
<path d="M3120 3473 c-63 -2 -125 -5 -137 -8 l-23 -5 0 -1219 c0 -965 3 -1221
13 -1229 22 -19 326 -35 569 -29 316 6 467 36 653 127 258 125 405 337 460
660 23 131 32 636 16 792 -44 404 -175 640 -428 771 -156 80 -329 119 -608
137 -150 9 -234 10 -515 3z"/>
</g>
</svg>
