<svg width="58" height="17" viewBox="0 0 58 17" xmlns="http://www.w3.org/2000/svg">
<path fill-rule="evenodd" clip-rule="evenodd" d="M55.5713 5.79309C55.5581 5.7897 55.5451 5.78538 55.5315 5.78415C55.2955 5.76317 55.058 5.74805 54.8201 5.73664C55.368 5.72707 55.9163 5.72461 56.4648 5.72862C56.1476 5.75638 55.8111 5.76008 55.5713 5.79309ZM51.8214 6.33978C52.4026 6.3009 52.9845 6.26789 53.566 6.23982C52.9885 6.30029 52.4026 6.31756 51.8214 6.33978ZM45.9094 6.35643C46.8238 6.25432 47.7392 6.16146 48.6555 6.0797C47.7321 6.18027 46.8143 6.28147 45.9094 6.35643ZM44.7068 6.89911C44.0966 6.91854 43.4864 6.94939 42.8761 6.98641C42.8777 6.98518 42.8789 6.98364 42.8804 6.98209C43.537 6.94322 44.1932 6.89972 44.849 6.85591C45.0548 6.84296 45.2609 6.83278 45.4667 6.8192C45.6851 6.80501 45.9035 6.78897 46.122 6.77323C45.6502 6.81766 45.1785 6.85962 44.7068 6.89911ZM40.8745 6.53414C40.6592 6.56283 40.4438 6.59275 40.2288 6.62206C40.463 6.32744 40.6959 6.04114 40.9319 5.77458C41.6368 5.6629 42.3409 5.54536 43.0449 5.42782C42.9017 5.58824 42.7574 5.74713 42.6127 5.90416C42.0265 6.09297 41.448 6.30553 40.8745 6.53414ZM45.9828 8.86216C46.8099 8.86802 47.7182 8.91368 48.5438 9.04017C50.1456 9.28513 47.588 9.73062 47.1765 9.76856C46.3938 9.84014 45.6077 9.87531 44.8228 9.91634C43.1609 10.003 41.4999 10.1129 39.8391 10.2307C40.3556 9.78152 40.8168 9.28451 41.2635 8.77392C42.8369 8.80231 44.4082 8.85167 45.9828 8.86216ZM32.3667 10.828C32.3747 10.8246 32.384 10.8203 32.392 10.8166C33.9114 10.148 35.4188 9.45049 36.9296 8.76128C36.9564 8.76128 36.9836 8.76128 37.0101 8.76097C36.8944 8.96674 36.7864 9.17499 36.6917 9.38601C36.5844 9.6251 36.9765 9.71858 37.1276 9.64423C37.5805 9.42303 37.9918 9.11359 38.3768 8.75603C38.6795 8.75572 38.9815 8.75325 39.2844 8.75325C39.5575 8.75325 39.8305 8.75788 40.1035 8.76035C39.8129 9.14475 39.538 9.54428 39.2875 9.96848C39.2119 10.0968 39.2567 10.2005 39.3458 10.2665C37.0181 10.4353 34.6913 10.6247 32.3667 10.828ZM30.9081 10.9566C30.5187 10.9912 30.1297 11.0245 29.7407 11.0594L29.4861 11.0822C29.5296 11.06 29.5731 11.0378 29.617 11.0156C30.2815 10.6762 30.9315 10.3115 31.5791 9.94287C31.5655 9.97526 31.5485 10.0052 31.535 10.0379C31.4544 10.2344 31.733 10.3248 31.8731 10.2983C32.6148 10.1564 33.0235 9.64362 33.5434 9.12038C33.6538 9.00963 33.7633 8.89795 33.8735 8.78688C34.5019 8.77979 35.1304 8.773 35.7594 8.76837C34.3686 9.38663 32.9884 10.0286 31.5936 10.6392C31.3958 10.7259 31.1629 10.8363 30.9081 10.9566ZM27.5993 12.0642C27.9603 11.8692 28.3234 11.6789 28.6871 11.4916C29.1243 11.4527 29.5614 11.4135 29.9983 11.3741C29.1958 11.7248 28.3175 12.0441 27.5993 12.0642ZM27.0609 11.2985C26.5004 11.3481 25.9395 11.3984 25.3783 11.4493C25.701 10.9896 26.0277 10.5324 26.3572 10.0777C26.5183 9.91202 26.6778 9.75129 26.8419 9.61647C27.1007 9.40329 27.3571 9.18887 27.6138 8.97476C27.7394 8.96798 27.8652 8.9615 27.9908 8.95379C27.8116 9.2225 27.6376 9.49553 27.4722 9.77535C27.3349 10.0083 27.6517 10.1298 27.8344 10.0546C28.4017 9.8207 28.8352 9.34745 29.2424 8.87666C29.3251 8.87141 29.4078 8.86524 29.4905 8.85969C29.4979 8.85938 29.5053 8.85907 29.5127 8.85907C28.6954 9.672 27.8782 10.4852 27.0609 11.2985ZM25.9333 12.4202C25.4342 12.729 24.9415 13.0456 24.4661 13.3812C24.272 13.5182 24.4037 13.6894 24.5796 13.7508C24.0888 14.208 23.5664 14.6406 23.0105 14.9818C23.493 13.9878 24.2424 13.081 24.8622 12.1817C24.9489 12.0565 25.0387 11.9328 25.126 11.8075C25.647 11.7609 26.1681 11.7143 26.6892 11.6684C26.4371 11.9189 26.1854 12.1697 25.9333 12.4202ZM22.4805 11.719C23.4498 10.836 24.4226 9.95614 25.4175 9.10465C25.4866 9.09508 25.5557 9.08583 25.6251 9.07626C25.7556 9.0704 25.8861 9.06362 26.0166 9.05745C25.4946 9.6467 24.9927 10.2853 24.4738 10.7984C24.3032 10.9671 24.4503 11.1982 24.6805 11.1825C24.8856 11.1683 25.0735 11.1072 25.2503 11.0174C25.1312 11.1763 25.0103 11.3339 24.8918 11.4934C24.0878 11.5666 23.2842 11.6415 22.4805 11.719ZM17.3169 12.2709C18.2644 11.4685 19.1952 10.6457 20.1222 9.81916C20.3339 9.7917 20.5455 9.76239 20.7575 9.73493C20.4107 10.2535 20.1074 10.7857 19.8834 11.3321C19.8017 11.5317 20.0827 11.6184 20.2234 11.594C20.5686 11.5339 20.8031 11.4512 21.0095 11.3049C20.8068 11.5123 20.6038 11.7193 20.4008 11.9263C19.3716 12.033 18.344 12.149 17.3169 12.2709ZM14.7989 12.5933C15.6183 11.8331 16.3917 11.0313 17.1488 10.2134C17.7313 10.1366 18.3141 10.0579 18.8971 9.97989C17.7695 10.7817 16.6052 11.6073 15.5202 12.4939C15.2795 12.5266 15.0392 12.56 14.7989 12.5933ZM13.4596 12.7895C13.7752 12.3422 14.0696 11.8797 14.3546 11.4108C14.5863 11.0958 14.8199 10.7829 15.0556 10.4707C15.1682 10.4584 15.2805 10.4461 15.3928 10.4331C14.7659 11.1451 14.1279 11.9908 14.2454 12.53C14.2578 12.5868 14.2966 12.6272 14.3463 12.6559C14.0504 12.6988 13.7552 12.7438 13.4596 12.7895ZM12.5782 12.928C11.7986 13.0548 11.0209 13.1909 10.2443 13.3353C10.3097 13.223 10.3785 13.1134 10.4452 13.0021C10.9857 12.601 11.4941 12.1638 11.9526 11.6995C12.2759 11.3716 12.5683 11.0276 12.8383 10.67C13.3331 10.6373 13.8271 10.596 14.321 10.5476C13.7287 11.3324 13.1483 12.1265 12.5782 12.928ZM11.1804 10.7416C11.2109 10.741 11.2418 10.7401 11.2723 10.7394C11.0539 11.06 10.8499 11.3926 10.6513 11.7301C10.8259 11.4 11.002 11.0702 11.1804 10.7416ZM9.71586 10.381C9.1701 10.3631 10.4489 9.97804 10.659 9.93176C10.8419 9.89135 11.0261 9.85618 11.2106 9.82317C11.2282 9.82286 11.2455 9.82193 11.2627 9.82132C11.1498 10.0135 11.0366 10.2054 10.9265 10.3985C10.5229 10.3988 10.1194 10.3942 9.71586 10.381ZM11.6326 9.19011C11.6027 9.2407 11.5728 9.2916 11.5432 9.34251C11.4065 9.35701 11.2689 9.37336 11.1316 9.39249C10.8302 9.40143 10.5288 9.39866 10.2277 9.38292C10.692 9.30086 11.1612 9.24039 11.6326 9.19011ZM11.9211 9.78029C11.7829 9.98575 11.6441 10.1903 11.5055 10.3948C11.4599 10.3958 11.4142 10.3961 11.3689 10.397C11.4781 10.1968 11.5873 9.99717 11.698 9.79756C11.7721 9.79293 11.8467 9.78584 11.9211 9.78029ZM12.0649 9.14599C12.1661 9.13642 12.2669 9.12624 12.3678 9.11668C12.3314 9.17129 12.2944 9.22558 12.2577 9.27988C12.167 9.28605 12.0732 9.29346 11.9776 9.30117C12.0066 9.24965 12.0356 9.19782 12.0649 9.14599ZM12.8497 7.78546C12.8546 7.77713 12.8599 7.7691 12.8648 7.76108C13.0305 7.73147 13.1962 7.70216 13.3621 7.67285C13.1342 7.99494 12.9086 8.31887 12.6868 8.64497C12.5683 8.65576 12.4499 8.66687 12.3314 8.67798C12.5023 8.38026 12.6745 8.08255 12.8497 7.78546ZM11.4019 7.54914C9.48479 7.88881 7.5603 8.18837 5.65709 8.59684C4.77876 8.78534 3.88593 8.90628 2.99588 9.02505C2.4529 9.09724 1.57612 9.02413 1.08682 9.23854C2.30914 8.70328 3.84768 8.85013 5.14497 8.53977C7.17435 8.05479 9.22934 7.68303 11.2957 7.39735C11.7915 7.32917 12.2879 7.26778 12.7846 7.21255C12.7636 7.24741 12.743 7.28258 12.7223 7.31745C12.2824 7.39488 11.8418 7.47108 11.4019 7.54914ZM15.0077 4.34649C15.5584 3.51659 15.0793 4.28633 15.0556 4.70066C15.038 5.00948 14.9923 5.32046 14.9349 5.6302C14.644 5.97172 14.3614 6.32034 14.0893 6.6779C13.8894 6.69549 13.6898 6.71462 13.4905 6.73405C13.9829 5.93069 14.483 5.13658 15.0077 4.34649ZM17.1707 3.87786C17.5141 3.52492 17.876 3.19451 18.2505 2.87551C18.6343 2.54911 19.2775 2.10362 18.9539 3.01002C18.5096 4.25424 17.7893 5.39573 17.034 6.48354C16.4068 6.51223 15.7796 6.54617 15.1518 6.59183C15.0843 6.59646 15.0167 6.60324 14.9488 6.60849C14.9794 6.5073 15.0096 6.40641 15.0367 6.30461C15.7068 5.46731 16.4118 4.65685 17.1707 3.87786ZM17.0414 9.41593C17.0695 9.41378 17.0976 9.41192 17.126 9.41007C16.9538 9.59796 16.7801 9.7843 16.6071 9.97125L16.5836 9.97403C16.7339 9.78615 16.889 9.60227 17.0414 9.41593ZM16.28 8.89579C16.3146 8.85259 16.3504 8.81033 16.3849 8.76745C16.5558 8.75325 16.7268 8.74153 16.898 8.72796C16.8582 8.77516 16.819 8.82236 16.7792 8.86987C16.6126 8.87697 16.4466 8.88715 16.28 8.89579ZM15.8247 9.46869C15.9774 9.46869 16.1304 9.4656 16.2837 9.45974C16.1418 9.61893 15.9407 9.83027 15.7207 10.0691C15.5908 10.0832 15.4606 10.099 15.3304 10.1126C15.4949 9.89752 15.6581 9.68156 15.8247 9.46869ZM14.8865 9.00037C14.8732 8.9979 14.8603 8.9942 14.8473 8.99173C15.0324 8.93805 15.2215 8.89147 15.4144 8.85167C15.4261 8.85074 15.4375 8.84951 15.4489 8.84828C15.4267 8.88406 15.4048 8.91985 15.3823 8.95533C15.2166 8.96859 15.0512 8.98279 14.8865 9.00037ZM13.542 9.62572C14.0446 9.57698 14.5474 9.5307 15.05 9.48843C14.9312 9.67909 14.8112 9.86914 14.6921 10.0601C14.6604 10.1014 14.6289 10.1431 14.5974 10.1841C14.1254 10.2301 13.6534 10.2758 13.1811 10.3137C13.1505 10.3162 13.12 10.3174 13.0894 10.3196C13.2474 10.0928 13.3995 9.86204 13.542 9.62572ZM13.584 9.00161C13.5926 9.00407 13.6031 9.00253 13.612 9.00407C13.58 9.05899 13.5479 9.1139 13.5149 9.16789C13.3285 9.19226 13.1419 9.21633 12.9555 9.23885C12.933 9.24008 12.9117 9.24132 12.8886 9.24255C12.9302 9.18023 12.9719 9.11853 13.0141 9.05683C13.2042 9.03924 13.3945 9.02104 13.584 9.00161ZM14.6388 7.44671C15.2925 7.33133 15.9465 7.21656 16.6006 7.10241C16.3223 7.49607 16.0548 7.90269 15.7907 8.31393C15.2459 8.37409 14.7008 8.43364 14.1566 8.49626C14.3259 8.15351 14.4848 7.80304 14.6388 7.44671ZM13.8777 8.52681C13.6987 8.54686 13.5195 8.56599 13.339 8.58388C13.583 8.23311 13.8314 7.88727 14.0834 7.54544C14.1778 7.52847 14.2723 7.51181 14.3667 7.49515C14.2158 7.85179 14.0529 8.19547 13.8777 8.52681ZM12.4135 10.6959C11.9853 11.1985 11.5151 11.6634 11.0042 12.0941C11.2973 11.6329 11.5962 11.176 11.8992 10.7212C12.071 10.7141 12.2423 10.7052 12.4135 10.6959ZM12.1293 10.3751C12.2746 10.1573 12.4203 9.93979 12.5656 9.72198C12.597 9.71889 12.6285 9.71611 12.66 9.71272C12.8401 9.6939 13.02 9.67755 13.2002 9.65935C13.041 9.89505 12.8738 10.123 12.6995 10.3446C12.5094 10.3563 12.3194 10.3671 12.1293 10.3751ZM17.9765 6.86486C18.0311 6.8553 18.0858 6.84604 18.1404 6.83679C18.2545 6.83278 18.3687 6.82969 18.4828 6.8266C18.1218 7.26654 17.756 7.70278 17.3901 8.13932C17.3244 8.14672 17.2586 8.15351 17.1932 8.16122C17.0794 8.17325 16.9656 8.18436 16.852 8.1967C17.0047 8.0119 17.1525 7.82217 17.3074 7.64015C17.5286 7.38038 17.7532 7.12339 17.9765 6.86486ZM19.847 4.75064C19.9393 4.65006 20.5727 3.85565 21.1045 3.29817C20.4437 4.32767 19.7101 5.30102 18.9465 6.25216C18.7747 6.28085 18.6025 6.30954 18.4307 6.33823C18.8971 5.8042 19.3676 5.27356 19.847 4.75064ZM20.3188 6.79421C21.037 6.78989 21.7555 6.79668 22.474 6.80871C22.1593 7.10951 21.8465 7.41247 21.5327 7.71512C21.215 7.74751 20.8972 7.77959 20.5794 7.81168C20.1259 7.85456 19.6727 7.89621 19.2195 7.94218C19.5783 7.54945 19.9451 7.16844 20.3188 6.79421ZM23.3437 5.99363C23.1888 6.13523 23.0349 6.27838 22.8816 6.42246C22.172 6.40734 21.4621 6.39778 20.7522 6.39839C21.6151 6.2574 22.4793 6.12474 23.3437 5.99363ZM22.2294 5.06162C23.1058 4.35914 24.1483 3.76926 24.9659 3.00909C25.1701 2.81905 25.4021 2.65924 25.6285 2.49789C26.9891 1.52979 26.0663 3.12509 25.7812 3.59341C25.5853 3.91581 25.358 4.21352 25.1164 4.49951C24.7206 4.80062 24.3362 5.11684 23.9604 5.44386C23.0694 5.583 22.1791 5.72337 21.2893 5.86745C21.5951 5.59164 21.906 5.32107 22.2294 5.06162ZM25.5298 5.20137C25.3666 5.22636 25.2034 5.25073 25.0405 5.27603C25.7578 4.68215 26.5133 4.13578 27.3417 3.67733C27.3102 3.77667 27.2689 3.88033 27.2152 3.98892C26.654 4.394 26.0922 4.79815 25.5298 5.20137ZM32.2162 1.42057C33.0405 0.896722 34.6907 -0.0575009 33.7232 1.69237C33.2108 2.61945 32.3797 3.40399 31.6365 4.14318C31.5729 4.20642 31.5118 4.27461 31.4501 4.34217C30.1066 4.52635 28.7639 4.71794 27.4225 4.91631C28.5362 4.0133 29.6947 3.16242 30.8337 2.33315C31.282 2.00705 31.7488 1.71767 32.2162 1.42057ZM32.5438 4.69541C32.4556 4.77964 32.3676 4.86417 32.2794 4.94839C32.0718 5.07211 31.8641 5.19551 31.6584 5.32262C31.4288 5.46422 31.2033 5.61076 30.9775 5.75762C31.2141 5.44695 31.4486 5.13412 31.6756 4.81666C31.965 4.77624 32.2544 4.73552 32.5438 4.69541ZM37.794 2.09158C37.8443 1.95337 37.8699 1.81516 37.856 1.68034C37.8369 1.49276 37.5923 1.46346 37.4618 1.55447C36.6729 2.10454 35.9164 2.70861 35.1819 3.34475C34.7737 3.55207 34.3686 3.76649 33.9663 3.98553C35.2988 2.74779 36.7253 1.63345 38.4228 0.926956C38.3413 1.29624 38.1062 1.69299 37.794 2.09158ZM36.6868 2.61698C36.8571 2.48586 37.0249 2.35042 37.198 2.22394C37.1496 2.30014 37.0922 2.37942 37.0305 2.45902C36.9157 2.51116 36.8012 2.56391 36.6868 2.61698ZM35.7625 3.77451C35.6505 3.7887 35.5376 3.80474 35.4262 3.81863C35.3691 3.82572 35.3118 3.83313 35.2547 3.84053C35.5694 3.67764 35.885 3.51567 36.2027 3.35802C36.0469 3.50919 35.8951 3.65141 35.7625 3.77451ZM38.2586 3.94419C38.2494 3.95129 38.2395 3.95838 38.2306 3.96548C37.4161 4.60656 36.6754 5.32786 35.943 6.0581C35.4913 6.12042 35.0396 6.1849 34.5874 6.24475C35.1674 5.55554 35.7677 4.88021 36.3329 4.18329C36.974 4.09999 37.6166 4.02317 38.2586 3.94419ZM40.3001 3.69676C40.5564 3.66777 40.8137 3.63722 41.071 3.60637C40.8097 3.89915 40.5546 4.19809 40.301 4.49797C40.2128 4.47884 40.1196 4.48131 40.0662 4.50599C39.0799 4.96135 38.0615 5.42412 37.0484 5.90601C36.9311 5.92267 36.8136 5.93809 36.6964 5.95414C36.9098 5.74312 37.1199 5.5287 37.3353 5.31922C37.8773 4.79074 38.4657 4.30947 39.0669 3.84608C39.4782 3.79734 39.8885 3.74304 40.3001 3.69676ZM40.342 2.89155C41.4493 2.07863 42.3878 1.1497 43.6005 0.515095C43.3568 1.39188 42.3699 2.17612 41.8226 2.77216C41.7587 2.84188 41.6967 2.91284 41.6328 2.98287C41.0596 3.05414 40.4867 3.12849 39.915 3.20685C40.0573 3.10165 40.1998 2.99614 40.342 2.89155ZM39.9175 6.12042C39.742 6.31139 39.5683 6.51933 39.3937 6.73559C39.3452 6.74207 39.2974 6.74855 39.2493 6.75503C39.1796 6.75842 39.1098 6.76151 39.0401 6.76459C39.253 6.49465 39.4702 6.2284 39.6874 5.96617C39.8336 5.94365 39.9798 5.92144 40.1261 5.89861C40.0566 5.97296 39.9863 6.04515 39.9175 6.12042ZM39.0296 8.08625C39.6158 8.0298 40.202 7.97365 40.7881 7.91441C40.6471 8.07947 40.5095 8.2473 40.3741 8.41698C40.0107 8.41636 39.6473 8.41513 39.2844 8.41513C39.0981 8.41513 38.9115 8.41451 38.7251 8.4142C38.8282 8.30715 38.93 8.19824 39.0296 8.08625ZM37.3433 6.8408C37.736 6.62145 38.1238 6.3913 38.5045 6.14757C38.664 6.12413 38.8229 6.09852 38.9824 6.07446C38.784 6.31108 38.586 6.55141 38.3901 6.79421C38.0411 6.80964 37.6922 6.8266 37.3433 6.8408ZM34.1703 6.74948C34.5843 6.6958 34.9986 6.64397 35.4123 6.58782C35.3694 6.6307 35.3266 6.67358 35.2834 6.71647C35.2451 6.75472 35.2044 6.79761 35.1646 6.83987C35.1081 6.86887 35.0514 6.89787 34.9952 6.92749C34.9511 6.92903 34.9073 6.93088 34.8632 6.93212C34.5744 6.94199 34.286 6.95464 33.9972 6.96482C34.0546 6.89263 34.1123 6.82074 34.1703 6.74948ZM34.7413 5.39388C34.4732 5.70455 34.2064 6.01522 33.9438 6.32774C33.8849 6.33546 33.826 6.34255 33.7667 6.35026C34.0928 6.0325 34.4174 5.7135 34.7413 5.39388ZM32.9881 6.44806C32.7743 6.4749 32.5608 6.50236 32.347 6.52889C33.0599 5.81099 33.7849 5.10388 34.53 4.42485C34.7459 4.39585 34.9619 4.36716 35.1779 4.33816C34.4661 5.05946 33.7266 5.7533 32.9881 6.44806ZM33.104 6.99845C33.1482 6.95525 33.1917 6.91145 33.2358 6.86795C33.3351 6.85561 33.4342 6.84265 33.5335 6.83031C33.4912 6.88245 33.4483 6.93428 33.4067 6.98703C33.3058 6.99073 33.2049 6.99443 33.104 6.99845ZM32.3491 9.50633C32.6006 9.36287 32.8523 9.21972 33.1047 9.07781C32.8258 9.32893 32.5423 9.54335 32.259 9.69267C32.2877 9.62973 32.3192 9.56865 32.3491 9.50633ZM31.8716 8.21891C32.1073 8.18806 32.3426 8.15474 32.5784 8.12451C32.5552 8.15875 32.5324 8.19269 32.5099 8.22755C32.2772 8.24514 32.0443 8.26087 31.8114 8.27846C31.8318 8.2584 31.8515 8.23866 31.8716 8.21891ZM31.3733 6.65106C31.3409 6.65507 31.3085 6.65847 31.2761 6.66217C31.6658 6.25648 32.0591 5.85325 32.4605 5.45096C32.4963 5.41486 32.5327 5.37969 32.5685 5.3439C32.959 5.10728 33.3524 4.8762 33.7501 4.65253C33.0751 5.29146 32.4118 5.94457 31.7583 6.60263C31.63 6.61836 31.5016 6.63564 31.3733 6.65106ZM31.2514 8.82606C31.352 8.82421 31.4526 8.82236 31.5532 8.82082C31.3505 8.92232 31.145 9.02444 30.938 9.12779C31.0432 9.02721 31.1475 8.92664 31.2514 8.82606ZM30.4885 8.83902C30.0143 9.28389 29.529 9.72475 29.0333 10.1548C28.8262 10.281 28.6226 10.4103 28.4283 10.546C28.634 10.326 28.8386 10.1113 29.0416 9.90708C29.3893 9.55754 29.7367 9.20306 30.0844 8.84612C30.2192 8.84303 30.354 8.84149 30.4885 8.83902ZM22.6591 9.48381C22.6955 9.47887 22.7316 9.47394 22.7677 9.469C22.6832 9.55939 22.6005 9.65164 22.5157 9.74172C22.1763 10.1018 21.8329 10.4578 21.4883 10.8129C21.8443 10.3547 22.2451 9.9148 22.6591 9.48381ZM21.4408 9.64485C21.6574 9.61647 21.874 9.58808 22.0905 9.55908C21.6657 10.0638 21.1653 10.6346 20.6486 10.952C20.8741 10.5087 21.144 10.0728 21.4408 9.64485ZM20.6803 9.32153C20.6837 9.31906 20.6874 9.31629 20.6908 9.31351C20.7285 9.28543 20.7661 9.25829 20.8034 9.23083C20.9086 9.22743 21.0135 9.2225 21.1187 9.21941C21.0746 9.28019 21.0305 9.34066 20.9873 9.40143C20.8309 9.42396 20.6745 9.44432 20.5181 9.46591L20.6803 9.32153ZM18.4026 8.02764C18.3295 8.03566 18.2564 8.04399 18.1829 8.0517C18.5291 7.64076 18.8712 7.22551 19.2084 6.80563C19.3343 6.80316 19.4605 6.80378 19.5863 6.80192C19.185 7.20268 18.791 7.61207 18.4026 8.02764ZM20.5622 8.63324C19.9649 8.68106 19.3679 8.73073 18.7703 8.773C18.6636 8.78071 18.5559 8.78441 18.4489 8.79089C18.5078 8.7258 18.567 8.6607 18.6263 8.5956C19.3324 8.54593 20.0392 8.5049 20.746 8.46233C20.685 8.51971 20.6236 8.57617 20.5622 8.63324ZM24.2026 6.15313C24.293 6.04268 24.3825 5.92976 24.4741 5.82117C24.5534 5.80975 24.6327 5.79926 24.7123 5.78723C24.5423 5.90909 24.3726 6.03126 24.2026 6.15313ZM26.02 5.60305C25.6745 5.8912 25.3324 6.18336 25.0004 6.48632C24.8576 6.48076 24.7147 6.47645 24.5722 6.4712C24.9513 6.19663 25.3299 5.92143 25.7091 5.64686C25.813 5.63236 25.9164 5.61724 26.02 5.60305ZM26.9341 6.06335C26.7549 6.22347 26.5803 6.38883 26.4047 6.55326C26.2841 6.54709 26.1635 6.54031 26.0429 6.53445C26.2388 6.27869 26.4341 6.02263 26.6247 5.7644C26.6938 5.67092 26.7679 5.5793 26.8438 5.48829C27.1442 5.44725 27.4447 5.40437 27.7452 5.36303C27.4534 5.57775 27.1862 5.83875 26.9341 6.06335ZM26.944 6.58134C27.2285 6.26974 27.5419 5.94056 27.8692 5.68635C27.6107 5.99239 27.3435 6.29165 27.0724 6.58782C27.0295 6.58566 26.9866 6.58381 26.944 6.58134ZM26.3579 7.21317L26.4054 7.16442C26.468 7.10056 26.5337 7.03053 26.6016 6.9568C26.6432 6.95896 26.6849 6.96112 26.7262 6.96328C26.6522 7.04225 26.5763 7.11969 26.501 7.19774L26.3579 7.21317ZM22.3028 8.49256C22.337 8.44937 22.3716 8.40649 22.4061 8.3633C22.6684 8.3488 22.9309 8.33306 23.1935 8.31949C23.1608 8.35497 23.1284 8.38983 23.096 8.42469C22.8316 8.44752 22.5672 8.47004 22.3028 8.49256ZM21.7576 9.20121C21.9736 9.19535 22.1902 9.18949 22.4064 9.18394C22.4018 9.18918 22.3978 9.19381 22.3935 9.19905C22.1575 9.2333 21.9212 9.26723 21.6851 9.30117C21.7095 9.26785 21.7333 9.23422 21.7576 9.20121ZM25.4339 7.31189C25.5397 7.17892 25.6461 7.04657 25.7504 6.91299C25.8374 6.917 25.9238 6.92224 26.0105 6.92656C25.8858 7.04688 25.7618 7.16813 25.6384 7.28999C25.5702 7.29708 25.502 7.30449 25.4339 7.31189ZM24.0576 6.84481C24.2405 6.85098 24.4238 6.85622 24.6071 6.86301C24.4917 6.97346 24.3732 7.08113 24.2609 7.19435C24.1739 7.28197 24.0906 7.37329 24.0048 7.46214C23.6951 7.49391 23.3853 7.526 23.0756 7.55808C23.4026 7.3196 23.7303 7.08236 24.0576 6.84481ZM28.6482 6.68346L28.481 6.67266C28.6757 6.53167 28.8722 6.39253 29.0703 6.25555C28.9333 6.4024 28.7932 6.54524 28.6482 6.68346ZM29.762 6.58628C29.691 6.63718 29.6219 6.69055 29.5516 6.74207C29.4464 6.73498 29.3411 6.72881 29.2359 6.72171C29.616 6.32836 29.9674 5.90786 30.279 5.43985C30.4354 5.20507 30.0581 5.12609 29.906 5.21865C29.177 5.66105 28.4705 6.13369 27.7807 6.627C27.702 6.62237 27.6234 6.61713 27.5447 6.6125C27.9491 6.1593 28.3453 5.69931 28.726 5.22698C29.4757 5.1227 30.2256 5.01966 30.9747 4.91446C30.5573 5.46114 30.1695 6.05656 29.762 6.58628ZM17.5159 8.83933C17.528 8.82514 17.5391 8.81033 17.5511 8.79645C17.5872 8.75418 17.6233 8.7113 17.6594 8.66903C17.7118 8.66533 17.7643 8.6607 17.817 8.65669C17.7627 8.71562 17.7088 8.77454 17.6548 8.83347C17.6085 8.83532 17.5622 8.83717 17.5159 8.83933ZM17.9327 9.35763C18.5809 9.31721 19.2279 9.2879 19.8748 9.26291C19.8396 9.29469 19.8042 9.32554 19.769 9.35701C19.6477 9.44432 19.5256 9.53193 19.4028 9.61955C18.7568 9.70624 18.1107 9.79016 17.4641 9.86945C17.6205 9.69884 17.7772 9.52854 17.9327 9.35763ZM36.85 8.28679C36.7716 8.32103 36.6933 8.3562 36.6146 8.39014C36.6001 8.39631 36.5856 8.4031 36.5711 8.40927C36.2049 8.40834 35.8384 8.40711 35.4719 8.40618C35.9312 8.36823 36.3906 8.32751 36.85 8.28679ZM35.1115 8.01838C35.1029 8.019 35.0943 8.01992 35.0859 8.02054C35.1566 7.98475 35.2272 7.94866 35.2979 7.91287C36.0775 7.86875 36.8571 7.82587 37.637 7.78299C37.6336 7.78731 37.6308 7.79193 37.6274 7.79656C36.7892 7.87338 35.9507 7.94835 35.1115 8.01838ZM42.8922 3.38363C42.7138 3.52153 42.5349 3.65851 42.3581 3.79826C41.7448 4.28355 41.1781 4.81388 40.6333 5.36858C40.4614 5.39573 40.2899 5.42226 40.118 5.44911C40.4053 5.10542 40.6866 4.76915 40.9501 4.44213C41.2012 4.13022 41.4635 3.82727 41.7285 3.52647C42.1156 3.47865 42.5037 3.43114 42.8922 3.38363ZM43.7825 3.27873C44.2311 3.22752 44.6803 3.17908 45.1292 3.13744C44.5742 3.70725 44.046 4.30021 43.5188 4.89533C43.4876 4.90057 43.4558 4.9052 43.4247 4.91075C42.7706 5.02274 42.1153 5.12702 41.4604 5.23315C42.1798 4.52265 42.9736 3.88712 43.7825 3.27873ZM46.9827 0.957808C46.7411 1.5702 46.1843 2.11472 45.6789 2.59662C45.3149 2.61759 44.9502 2.64382 44.585 2.67343C45.2967 2.12151 46.1513 1.35949 46.9827 0.957808ZM47.8447 2.97732C48.206 2.97207 48.5675 2.95511 48.9288 2.93474C47.7861 3.38239 46.6992 3.95992 45.6296 4.58466C45.1958 4.64266 44.767 4.7022 44.344 4.76514C44.8454 4.19223 45.3562 3.62797 45.877 3.07296C46.5344 3.02236 47.1907 2.98688 47.8447 2.97732ZM50.4069 3.84176C49.2916 4.07778 48.1452 4.24653 47.0099 4.40017C47.249 4.27862 47.4822 4.16015 47.7065 4.04507C48.5432 3.6147 49.3317 3.24511 50.239 2.97146C51.1053 2.71015 50.7509 3.36111 50.4069 3.84176ZM43.594 5.61632C43.6903 5.50741 43.7868 5.39943 43.8819 5.28961C43.9821 5.27264 44.0821 5.25721 44.1821 5.23993C44.3366 5.2134 44.4933 5.18872 44.6498 5.16404C44.4687 5.26986 44.2817 5.37907 44.0923 5.49106C43.9254 5.52993 43.7594 5.5722 43.594 5.61632ZM44.3554 5.87392C45.0197 5.72892 45.6938 5.62681 46.3796 5.58022C47.0096 5.53734 47.6053 5.68141 48.1982 5.7172C46.7769 5.83783 45.3566 5.98653 43.9371 6.1522C44.0741 6.05718 44.2138 5.96494 44.3554 5.87392ZM45.7851 5.18903C45.6617 5.20353 45.5401 5.22266 45.4179 5.24024C45.5765 5.1517 45.7354 5.06501 45.894 4.97986C47.2375 4.7929 48.62 4.62261 49.9759 4.3724C48.8242 5.57652 47.3184 5.00855 45.7851 5.18903ZM6.73966 14.5502C6.35309 14.714 5.95357 14.8362 5.54079 14.9164C5.12862 14.9728 3.43798 15.3332 4.96048 14.8682C5.75273 14.6261 6.58047 14.4459 7.40573 14.2768C7.18422 14.37 6.96179 14.4607 6.73966 14.5502ZM51.387 2.7774C52.0531 2.7157 53.256 2.55373 53.9112 2.74563C53.0669 3.12571 52.1682 3.41725 51.2377 3.64895C51.3688 3.34846 51.4311 3.04889 51.387 2.7774ZM57.4733 5.38833C54.6825 5.32447 51.8923 5.43306 49.1056 5.64655C49.2108 5.61971 49.3166 5.58701 49.4227 5.54258C49.8833 5.34946 50.5161 4.80092 50.9421 4.17742C52.2218 3.89514 53.4614 3.51721 54.6005 2.95356C54.76 2.87458 54.784 2.72156 54.6597 2.59939C54.1087 2.05888 53.3871 2.16162 52.676 2.26836C52.2135 2.33808 51.7381 2.38621 51.2574 2.42169C51.1902 2.32112 51.0285 2.29551 50.9205 2.31896C50.7123 2.36431 50.5087 2.41953 50.3051 2.47537C49.3052 2.51702 48.297 2.51918 47.3335 2.53306C47.0065 2.53769 46.6776 2.55342 46.3493 2.56731C46.3694 2.54633 46.3885 2.52442 46.4089 2.50345C46.9917 1.90247 47.439 1.44711 47.5828 0.601786C47.6081 0.45401 47.3702 0.385829 47.2672 0.416371C46.6529 0.598701 46.2028 1.0229 45.678 1.37368C45.016 1.81608 44.3672 2.27731 43.7276 2.75149C43.2454 2.79807 42.7629 2.84898 42.2798 2.90605C42.4985 2.66202 42.7169 2.41799 42.9323 2.1718C43.5857 1.4252 44.0664 1.1423 44.1065 0.169871C44.1133 0.00605224 43.88 -0.0285009 43.768 0.0205523C42.8348 0.428712 42.0487 0.954414 41.2814 1.62758C40.587 2.2372 39.8287 2.77308 39.0811 3.32254C38.3154 3.42959 37.5522 3.53665 36.7938 3.63938C37.1255 3.29107 37.5518 2.92117 37.9387 2.52658C38.4453 2.29057 38.9534 2.05796 39.464 1.82935C39.7361 1.70749 39.4523 1.44834 39.2379 1.53133C39.0059 1.62111 38.7763 1.7152 38.5462 1.80868C38.8072 1.42983 38.975 1.02907 38.9513 0.601786C38.9411 0.417605 38.7159 0.387371 38.5789 0.43735C36.4718 1.20307 34.766 2.58705 33.158 4.11233C32.7968 4.15984 32.4355 4.20673 32.0746 4.25579C32.9973 2.96837 34.4266 2.11287 34.5976 0.385829C34.6108 0.250084 34.426 0.220776 34.3335 0.230957C32.5524 0.428712 30.8035 1.68651 29.2538 2.95048C29.2153 2.81782 28.9592 2.72465 28.8111 2.83294C28.5541 3.02113 28.295 3.20654 28.0374 3.3935C28.0358 3.30588 28.0294 3.21703 28.0118 3.12479C27.9763 2.93783 27.6712 2.91068 27.5382 2.97639C27.0338 3.22474 26.5541 3.50456 26.0922 3.80721C26.4846 3.24202 26.8256 2.63796 27.0659 1.94442C27.1029 1.8383 27.0039 1.73279 26.9008 1.72075C26.2813 1.64764 25.8028 1.91111 25.2833 2.23196C24.0903 2.96899 22.9599 3.91056 21.8527 4.77131C21.3523 5.16034 20.8787 5.57899 20.4153 6.00813C20.1935 6.04422 19.972 6.08217 19.7505 6.11857C20.6094 5.01102 21.418 3.86521 22.1171 2.65153C22.1979 2.51116 22.1109 2.36091 21.9502 2.33592C21.4926 2.26466 21.219 2.58613 20.9145 2.89094C19.992 3.81431 19.1091 4.79537 18.2354 5.76595C18.0299 5.99424 17.8285 6.22593 17.6267 6.45701C17.6258 6.45732 17.6248 6.45732 17.6242 6.45732C18.51 5.11992 19.2711 3.70355 19.7397 2.16192C19.7665 2.07369 19.7138 1.97959 19.6268 1.94844C18.2304 1.44896 16.1653 4.17218 15.2669 5.23901C15.2755 5.18965 15.286 5.14029 15.2943 5.09092C15.3863 4.54486 15.7432 4.14318 15.5359 3.59403C15.4983 3.49376 15.3468 3.49716 15.2851 3.56873C14.4407 4.55134 13.7222 5.65118 13.0447 6.77755C10.5226 7.03547 8.02769 7.42666 5.54017 7.97211C4.32001 8.23989 3.12083 8.35404 1.89388 8.55025C1.22935 8.65669 0.519467 8.83254 0.0431262 9.33048C-0.0580653 9.43661 0.0357219 9.60227 0.150488 9.64608C0.469796 9.76856 0.806073 9.92405 1.15623 9.78985C2.23417 9.37706 3.62802 9.41532 4.76858 9.23422C7.03675 8.87357 9.29629 8.3923 11.5601 7.99216C11.8461 7.94156 12.1318 7.89097 12.4178 7.84037C12.2475 8.13377 12.0778 8.42654 11.9088 8.71808C10.8756 8.81958 9.84358 8.94885 8.85511 9.23391C8.60615 9.30611 8.57437 9.6032 8.85511 9.65997C9.10131 9.70964 9.34626 9.74388 9.59091 9.77134C9.1809 9.95151 8.91126 10.1946 8.9162 10.5256C8.91805 10.6466 9.04516 10.6972 9.14697 10.7034C9.67699 10.7342 10.2052 10.7459 10.7321 10.7447C10.2628 11.5786 9.81458 12.419 9.37712 13.2658C9.18059 13.3868 8.97975 13.5043 8.77429 13.6188C8.75146 13.6234 8.72893 13.6274 8.7061 13.6317C7.16602 13.9415 5.2477 14.142 3.84706 14.8951C3.70823 14.9697 3.68047 15.1499 3.84706 15.2175C5.04532 15.7037 6.31854 15.1468 7.45078 14.6905C7.96105 14.4848 8.46578 14.2367 8.95939 13.9603C8.98191 13.9554 9.00474 13.951 9.02726 13.9464C8.62959 14.7266 8.23686 15.5118 7.84042 16.3022C7.72658 16.5296 8.15726 16.5762 8.27265 16.4429C8.98346 15.6185 9.47676 14.6865 10.0059 13.7499C10.7648 13.6024 11.5256 13.4667 12.2879 13.3386C12.1639 13.5139 12.0393 13.6888 11.9165 13.8647C11.7119 14.1565 12.2382 14.2842 12.4184 14.0908C12.6843 13.8051 12.9262 13.5034 13.1598 13.1958C13.7756 13.0983 14.3929 13.0079 15.0108 12.9206C14.35 13.4874 13.7262 14.08 13.1709 14.7094C12.9253 14.9879 13.4417 15.1342 13.6321 15.0648C14.8914 14.6038 15.7735 13.5629 16.7919 12.7155C16.8076 12.7025 16.823 12.6889 16.8391 12.6757C17.9016 12.5408 18.9659 12.4174 20.0312 12.3033C18.7136 13.6462 17.4021 14.9944 16.1826 16.4315C15.9317 16.727 16.5139 16.9316 16.728 16.7557C17.528 16.0992 18.3026 15.3881 19.0613 14.6511C19.1446 14.6575 19.2297 14.6384 19.2954 14.5813C20.2314 13.7681 21.1502 12.9317 22.0686 12.0944C22.9195 12.0108 23.7707 11.9309 24.6219 11.8535C24.5814 11.9087 24.5392 11.9627 24.4988 12.0182C23.7022 13.107 22.7557 14.1658 22.2756 15.4353C22.1954 15.6466 22.5135 15.7213 22.6526 15.6583C23.9496 15.0716 25.1047 14.0649 26.1795 12.9669C26.4362 12.8046 26.6898 12.6371 26.94 12.4634C26.9514 12.4671 26.9625 12.4714 26.9743 12.4739C28.2586 12.7426 30.0967 11.8961 31.4776 11.242C34.5442 10.9687 37.6129 10.7209 40.6848 10.5115C42.4562 10.3908 44.2265 10.2788 45.9998 10.1789C47.2378 10.1092 48.4521 10.0925 49.5989 9.58932C49.6951 9.54705 49.7291 9.45327 49.6757 9.3638C49.1722 8.52064 47.8839 8.62923 47.0382 8.57679C45.2205 8.46387 43.3941 8.43209 41.5693 8.42161C41.7541 8.20626 41.9389 7.99062 42.1252 7.77589C43.371 7.6457 44.6167 7.51273 45.8616 7.37637C46.051 7.35539 46.2404 7.33349 46.4302 7.31158C47.1314 7.27549 47.8256 7.20453 48.4966 7.06354C49.6362 6.92811 50.7774 6.80439 51.9189 6.74701C53.2004 6.68222 54.469 6.67975 55.6701 6.17781C55.7114 6.16022 55.7395 6.13955 55.7611 6.11703C56.3787 6.02664 57.2783 6.10592 57.6698 5.65241C57.788 5.51574 57.5933 5.39111 57.4733 5.38833Z" fill="white"></path>
</svg>