<svg width="24" height="32" viewBox="0 0 24 32" xmlns="http://www.w3.org/2000/svg">
<mask id="grx26bet7a" style="mask-type:alpha" maskUnits="userSpaceOnUse" x="0" y="0" width="24" height="32">
<path fill-rule="evenodd" clip-rule="evenodd" d="M0 0h24v31.765H0V0z" fill="#fff"></path>
</mask>
<g mask="url(#grx26bet7a)">
<path fill-rule="evenodd" clip-rule="evenodd" d="M10.012 16.306c.123-.115.182-.151.215-.204.06-.098.389-.08.172-.274-.101-.09-.091-.377-.318-.274-.248.112-.051.272-.011.418.019.07-.023.155-.058.334m2.727-.173c.264.274-.029.433.03.666.077.308.019.322.511.24-.593-.127-.052-.67-.541-.906m-4.054 3.355c.455-.109.438-.349.304-.697-.078-.203-.315-.376-.197-.637.076-.168-.006-.265-.146-.299-.161-.038-.265.117-.278.227-.024.206-.033.422.084.627.134.236.243.49.233.78m5.916-2.107c.256.129.407.002.354-.175-.08-.266-.052-.593-.304-.787-.064-.049-.793.621-.748.677.186.232.367.512.698.285m.943-3.807c.009.418.297.746.391 1.142.035.141.185.096.24.026.076-.097.307-.2.203-.294-.315-.287-.155-.658-.253-.975-.045-.146-.09-.398-.335-.365-.257.037-.266.252-.246.466m-.286 6.46c-.089-.632-.173-1.263-.267-1.894-.028-.192-.203-.252-.338-.2-.168.064-.296.257-.24.43.186.582.29 1.203.845 1.664M7.684 14.65c.043-.098.125-.206.007-.23-.194-.041-.331.117-.489.205-.15.085-.16.161-.092.322.143.331.338.68.344 1.025.006.468.297.291.475.272.263-.03.209-.218.137-.414-.145-.396-.261-.801-.382-1.18m8.831.395c-.173.009-.434.462-.38.638.08.265.167.538.27.781.17.399.309.832.605 1.172.082.096.177.164.305.092.12-.068.064-.193.038-.267-.269-.738-.352-1.533-.686-2.25-.034-.075-.037-.168-.152-.166m-3.755-.429c.03-.014.08-.025.12-.055.376-.286.752-.571 1.122-.867.074-.059.1-.139.048-.26-.094-.228-.128-.48-.215-.713-.084-.229-.157-.397-.48-.164-.353.255-.643.57-.98.836-.111.09-.163.216-.08.378.115.217.2.451.293.679.031.075.042.166.172.166m-1.648 11.506c-.02-.398.036-.8-.22-1.158a2.058 2.058 0 0 1-.301-.625c-.137-.464-.22-.941-.374-1.404-.2-.59-.48-1.157-.55-1.787-.02-.177-.083-.368-.28-.307-.105.033-.238.163-.126.423.377.87.553 1.819.779 2.734.202.816.569 1.478 1.072 2.124m2.49-9.46c.172-.119.368-.185.43-.314.143-.297.655-.264.617-.66-.038-.402-.152-.798-.275-1.184-.007-.023-.127-.525-.434-.234-.236.225-.53.35-.8.501-.324.184-.293.37-.16.631.207.406.405.816.623 1.26m-3.616-2.084c-.266-.28-.194-.715-.47-1.01-.09-.095.063-.38-.191-.374-.166.005-.334.122-.492.206-.067.035-.098.135-.163.175-.508.298-.757.554-.345 1.221.462.75.366.832 1.075.32.203-.147.472-.249.586-.538m3.52-2.815c-.03-.414-.448-.692-.35-1.128-.158.007-.2-.392-.428-.13-.276.314-.656.482-.996.702-.225.147-.314.365-.258.571.104.382.281.743.433 1.111.041.098.152.2.22.09.133-.214.389-.186.551-.345.24-.236.326-.641.749-.682.1-.01.096-.119.08-.189m3.58 8.664c.152-.264-.247-.425-.267-.713-.04-.56-.462-.873-.836-1.212-.112-.101-.208-.104-.233.083-.082.587-.168 1.172-.245 1.758a.703.703 0 0 0 .024.248c.07.306.833 1.056 1.04.98.503-.181.456-.653.517-1.144m-4.173-2.075c.068.17.034.39.126.622.138.352.325.679.46 1.024.23.584.671.95 1.12 1.328.123.105.253.152.348.035.077-.095.121-.207.07-.392-.162-.582-.565-1.04-.742-1.61-.17-.548-.604-.949-.882-1.44-.07-.124-.095-.373-.247-.31-.117.047-.287.228-.256.449.012.082.003.166.003.294m-2.86 1.502c.135-.33.274-.61.449-.624.462-.038.57-.447.858-.657.114-.085.09-.144.052-.247-.17-.457-.326-.916-.49-1.373-.245-.681-.248-.683-.817-.282-.231.163-.445.353-.682.512-.153.1-.197.23-.146.384.242.727.491 1.45.776 2.287m11.128-9.565c-.163-.017-.308.064-.447.147-1.044.628-2.19 1.064-3.232 1.703-.246.151-.249.274-.178.428.056.126.032.266.07.34.122.246.039.626.274.733.15.068.35-.271.535-.374.834-.454 1.456-1.169 2.203-1.727.33-.248.667-.51.919-.854.073-.1.129-.196.106-.317-.032-.167-.174.007-.25-.08m-8.478 16.386c.313-.188-.418-.837.369-.893.005 0 0-.156 0-.237-.005-.437 0-.872.01-1.307.01-.544.001-1.118-.158-1.63-.385-1.24-.861-2.453-1.306-3.69-.377.317-.725.627-1.092.914-.262.201-.332.425-.229.741.272.83.49 1.68.793 2.498.46 1.25.868 2.526 1.613 3.604m5.523-22.03c-.299.864-1.102 1.247-1.725 1.8-.271.243-.563.464-.842.697-.131.109-.168.278-.249.41-.14.229.072.301.134.39.087.124.262-.014.312-.098.315-.538.917-.688 1.386-.982 1.14-.717 2.236-1.496 3.363-2.23.476-.307.982-.478 1.542-.17.375.203.463.438.147.686-.625.49-1.093 1.171-1.847 1.503-.116.052-.182.219-.286.353-.163-.157-.02-.431-.248-.575.358.088.627.08.631-.362.001-.099-.087-.201-.12-.123-.237.56-.823.322-1.215.547-.951.54-1.966.97-2.811 1.686-.034.028-.092.024-.13.049-.183.117-.524.101-.505.386.021.364.253.673.445.978.08.126.164-.033.24-.07.393-.193.684-.523 1.033-.773.148-.105.315-.273.572-.149a.849.849 0 0 1-.598.488c-.487.12-.639.612-1.007.863-.137.094-.07.287.032.402.253.285.13.78.547.97-.085.107-.024.22-.052.403 1.155-.642 2.228-1.26 3.253-1.994.517-.372 1.165-.65 1.743-.985.496-.288.985-.385 1.52-.219.572.18.653.514.187.889-.857.687-1.696 1.396-2.58 2.053-1.025.76-1.994 1.594-2.99 2.393-.275.221-.313.463-.194.8.509 1.438.735 2.96 1.275 4.387.188.497.47.959.698 1.44.173.368.169.652-.348.697-.258.024-.42.195-.451.463-.03.247-.021.55-.31.626-.351.09-.647-.127-.904-.336-.149-.12-.245-.305-.376-.478-.029.074-.058.134-.074.197-.228.9-.871 1.14-1.575.543-.252-.212-.34-.249-.562.03-.235.296-.859.208-1.216-.143-.128-.125-.275-.265-.412-.235-.196.043-.14.28-.152.439-.083 1.121-.052 2.238 0 3.363.04.828-.003 1.67.014 2.506.004.208.113.38.105.586-.01.247-.094.433-.336.503-.239.07-.434-.012-.527-.256-.134-.354-.491-.48-.728-.73-.311-.326-.705-.581-.835-1.057-.075.608.366 1.05.436 1.605.072.562.432.996.698 1.472.135.242.271.486.393.736.075.152.295-.284.303.088.003.187.044.38-.174.472-.242.102-.448-.12-.5-.233-.238-.527-.732-.915-.814-1.522-.095-.71-.637-1.24-.78-1.932-.044-.214-.32-.425-.01-.649.039-.028.06-.07-.016-.092-.419-.126-.325-.512-.424-.81-.197-.582-.377-1.182-.668-1.716-.289-.53-.23-1.16-.549-1.645-.235-.36-.147-.82-.461-1.144-.15-.154-.192-.155-.332.002-.449.511-1.032.876-1.488 1.388-.23.257-.603.326-.906.079-.358-.292-.212-.645.004-.938A9.108 9.108 0 0 1 7.607 20.6c.162-.127.35-.247.112-.475-.071-.067-.07-.156.019-.211.108-.066.186.022.272.07.063.034-.148.227.084.145.043-.016.097-.116.084-.159-.123-.41-.25-.82-.4-1.219-.06-.159-.168-.073-.28-.003-1.876 1.155-3.662 2.44-5.397 3.795-.37.289-.784.505-1.205.701-.272.127-.564.114-.775-.151-.218-.276-.11-.514.079-.768.301-.403.733-.668 1.119-.952.701-.518 1.377-1.07 2.086-1.578.83-.596 1.608-1.265 2.44-1.861.422-.305.72-.752 1.191-.987.108-.053.074-.118.048-.205-.137-.446-.215-.916-.484-1.312-.047-.07-.043-.214-.191-.19-.127.021-.152.12-.17.22-.069.399-.23.235-.332.037-.088-.168-.275-.2-.306-.104-.158.485-.98.45-.87 1.14.022.139-.126.259-.258.35-.769.54-1.527 1.09-2.298 1.627-.358.25-.727.484-1.101.709-.295.177-.59.128-.81-.129-.223-.263-.098-.5.078-.76.248-.367.594-.588.958-.806.293-.176.501-.517.74-.674.516-.342.991-.732 1.483-1.1.796-.595 1.565-1.226 2.353-1.834.148-.116.18-.194.073-.368-.479-.782-.745-1.663-1.106-2.498-.359-.83-.633-1.693-1.005-2.52-.269-.594-.344-1.258-.64-1.856-.094-.19.07-.686-.067-.798-.47-.39-.307-.872-.327-1.33-.005-.119-.103-.343.14-.35.262-.008.386.295.329.408-.144.274.008.398.148.562.04.048.092.127.079.172-.26.81.393 1.377.577 2.065.278 1.042.77 2.027 1.178 3.034.173.426.376.84.548 1.267.234.575.453 1.159.693 1.775.326-.298.537-.512.374-1.036-.345-1.1-.938-2.121-1.067-3.298-.027-.24-.245-.46-.312-.747-.156-.667-.484-1.298-.615-1.968-.111-.571-.259-1.16-.174-1.758.02-.136-.108-.381.185-.38.24 0 .308.2.316.383.015.32.156.624.17.921.025.5.393.926.263 1.439-.047.186.157.237.202.383.164.527.253 1.082.552 1.561a.39.39 0 0 1 .024.044c.108.258.041.527.18.826.247.534.28 1.183.527 1.751.118.272.202.56.338.822.088.166.291.1.359-.003.17-.264.429-.398.687-.523.358-.174.361-.454.238-.743-.365-.857-.585-1.764-.903-2.635-.493-1.347-.767-2.76-1.202-4.12-.144-.452-.365-.887-.471-1.361-.079-.35-.028-.631.361-.744.37-.107.618.058.764.384 1.004 2.243 2.01 4.486 3 6.734.346.783.335.799 1.028.332.314-.213.543-.532.9-.703.194-.093.216-.333.138-.53-.448-1.139-.86-2.293-1.379-3.396-.232-.495-.426-1.015-.715-1.495-.155-.259-.221-.65-.327-.98-.161-.503-.392-.985-.58-1.482-.16-.429-.022-.83.322-1.061.289-.191.653-.076.9.195.255.28.554.387.926.356.375-.03.648.147.796.488.553 1.275 1.244 2.487 1.743 3.785.069.182.203.367.4.193.362-.32.9-.354 1.196-.812.095-.148.468-.133.716-.236.516-.214.914-.706 1.53-.68.134.004.273-.001.4.034.237.064.506.096.606.38.098.282-.235.266-.315.437-.074.158-.23.275-.352.41-.09-.276-.249-.427-.563-.336-.11.033-.232.025-.346.047-.808.154-1.532.566-2.345.73-.614.122-.671.405-.367.976.094.174.22.322.264.532.05.236.158.299.4.11.56-.44 1.046-.993 1.726-1.26.472-.183.697-.729 1.234-.8M2.164 6.218c-.14.469-.306.868-.319 1.314-.004.136-.196.198-.276.007-.14-.325-.3-.653-.365-.997-.052-.283.105-.505.444-.543.243-.026.339.18.516.22z" fill="#fff"></path>
</g>
</svg>